<?xml version="1.0" encoding="utf-8"?>
<!-- Generator: Adobe Illustrator 15.0.0, SVG Export Plug-In . SVG Version: 6.00 Build 0)  -->
<!DOCTYPE svg PUBLIC "-//W3C//DTD SVG 1.1//EN" "http://www.w3.org/Graphics/SVG/1.1/DTD/svg11.dtd">
<svg version="1.1" id="图层_1" xmlns="http://www.w3.org/2000/svg" xmlns:xlink="http://www.w3.org/1999/xlink" x="0px" y="0px"
     width="43px" height="43px" viewBox="0 0 43 43" enable-background="new 0 0 43 43" xml:space="preserve">
<g>
	<path fill="#FFFFFF" d="M40.745,40.48c-2.214-0.902-9.129-3.516-18.997-3.516c-9.866,0-16.781,2.613-18.994,3.516
		c-0.552,0.18-0.829-0.088-0.737-0.811c0.552-8.379,7.376-18.295,17.057-20.097c0.646-0.181,1.292,0.271,0.737,0.721
		c-3.411,2.342-5.901,8.472-5.901,9.823c0,1.621,4.98,2.164,7.837,2.164c2.859,0,7.838-0.633,7.838-2.164
		c0-1.352-2.581-7.481-5.901-9.823c-0.553-0.541,0.092-0.901,0.736-0.721c9.684,1.712,16.506,11.718,17.06,20.097
		C41.574,40.48,41.297,40.66,40.745,40.48z"/>
    <path fill="#FFFFFF" d="M40.745,40.48c-2.214-0.902-9.129-3.516-18.997-3.516c-9.866,0-16.781,2.613-18.994,3.516
		c-0.185,0.09-0.368,0.09-0.46,0c5.532-4.506,11.802-5.408,17.242-6.041c6.546-0.717,10.05-2.791,10.05-4.322
		c0-1.352-2.581-7.481-5.901-9.823c-0.553-0.541,0.092-0.901,0.736-0.721c9.684,1.712,16.506,11.718,17.06,20.097
		C41.574,40.48,41.297,40.66,40.745,40.48z"/>
</g>
    <g>
	<path fill="#FFFFFF" d="M21.749,2c4.795,0,8.668,3.784,8.668,8.47c0,4.687-3.873,8.472-8.668,8.472
		c-4.793,0-8.667-3.785-8.667-8.472C13.082,5.784,16.956,2,21.749,2z"/>
        <path fill="#FFFFFF" d="M30.417,10.47c0,4.687-3.873,8.472-8.668,8.472c-1.66,0-3.226-0.451-4.518-1.262
		c1.014,0.36,2.029,0.54,3.136,0.54c4.794,0,8.667-3.784,8.667-8.471c0-3.064-1.659-5.678-4.148-7.209
		C28.11,3.803,30.417,6.866,30.417,10.47z"/>
</g>
</svg>
