<?xml version="1.0" encoding="utf-8"?>
<!-- Generator: Adobe Illustrator 15.0.0, SVG Export Plug-In . SVG Version: 6.00 Build 0)  -->
<!DOCTYPE svg PUBLIC "-//W3C//DTD SVG 1.1//EN" "http://www.w3.org/Graphics/SVG/1.1/DTD/svg11.dtd">
<svg version="1.1" id="图层_1" xmlns="http://www.w3.org/2000/svg" xmlns:xlink="http://www.w3.org/1999/xlink" x="0px" y="0px"
     width="43px" height="43px" viewBox="0 0 43 43" enable-background="new 0 0 43 43" xml:space="preserve">
<g>
	<path fill="#609ED6" d="M38,39.249c-2.01-0.837-8.288-3.265-17.247-3.265c-8.958,0-15.237,2.428-17.246,3.265
		c-0.502,0.167-0.754-0.084-0.67-0.754C3.34,30.71,9.535,21.5,18.326,19.825c0.586-0.167,1.172,0.252,0.67,0.67
		c-3.098,2.177-5.359,7.87-5.359,9.126c0,1.507,4.521,2.01,7.116,2.01c2.597,0,7.117-0.587,7.117-2.01
		c0-1.256-2.345-6.949-5.358-9.126c-0.503-0.502,0.084-0.837,0.67-0.67c8.791,1.591,14.985,10.884,15.488,18.67
		C38.753,39.249,38.502,39.416,38,39.249z"/>
    <path fill="#538EC8" d="M38,39.249c-2.01-0.837-8.288-3.265-17.247-3.265c-8.958,0-15.237,2.428-17.246,3.265
		c-0.167,0.084-0.335,0.084-0.419,0c5.024-4.187,10.717-5.022,15.656-5.61c5.943-0.67,9.126-2.595,9.126-4.018
		c0-1.256-2.345-6.949-5.358-9.126c-0.503-0.502,0.084-0.837,0.67-0.67c8.791,1.591,14.985,10.884,15.488,18.67
		C38.753,39.249,38.502,39.416,38,39.249z"/>
    <path fill="#EA5957" d="M20.753,3.5c4.341-0.005,7.864,3.509,7.87,7.85c0,0.006,0,0.013,0,0.02c0.006,4.341-3.51,7.864-7.85,7.87
		c-0.007,0-0.013,0-0.02,0c-4.341,0.005-7.864-3.509-7.87-7.85c0-0.007,0-0.014,0-0.02c-0.005-4.341,3.509-7.865,7.85-7.87
		C20.74,3.5,20.747,3.5,20.753,3.5L20.753,3.5z"/>
    <path fill="#DC4F4F" d="M28.623,11.37c0.006,4.341-3.51,7.864-7.85,7.87c-0.007,0-0.013,0-0.02,0c-1.506,0-2.93-0.42-4.102-1.173
		c0.912,0.336,1.875,0.506,2.847,0.503c4.341,0.006,7.864-3.509,7.87-7.85c0-0.007,0-0.014,0-0.02c0-2.847-1.509-5.274-3.769-6.698
		C26.529,5.174,28.623,8.021,28.623,11.37z"/>
</g>
    <rect id="_x3C_切片_x3E_" x="2.394" y="3.123" fill="none" width="36.749" height="36.6"/>
</svg>
